<svg xmlns="http://www.w3.org/2000/svg" viewBox="0 0 24.08 19.73"><defs><style>.cls-1{fill:#383837;}</style></defs><title>download</title><g id="Capa_2" data-name="Capa 2"><g id="Capa_1-2" data-name="Capa 1"><path class="cls-1" d="M19.09,6.64A6.73,6.73,0,0,0,5.77,5.35H5.71a5.71,5.71,0,1,0,0,11.41H7.8a.51.51,0,0,0,0-1H5.71a4.68,4.68,0,1,1,0-9.36l.44,0A.51.51,0,0,0,6.71,6a5.7,5.7,0,0,1,11.36.78c0,.11,0,.41,0,.41a.51.51,0,0,0,.56.55l.41,0a4,4,0,1,1,0,8.07h-2.3a.51.51,0,1,0,0,1H19a5.06,5.06,0,0,0,.07-10.12Z"/><path class="cls-1" d="M14.73,17.12a.51.51,0,0,0-.73,0l-1.24,1.1V11.87a.51.51,0,0,0-1,0v6.32l-1.24-1.1a.51.51,0,0,0-.68.77l1.87,1.67a.85.85,0,0,0,1.13,0l1.87-1.67A.51.51,0,0,0,14.73,17.12Z"/></g></g></svg>