<svg xmlns="http://www.w3.org/2000/svg" viewBox="0 0 23.33 29.32"><defs><style>.cls-1{fill:#85bdd4;}.cls-2{fill:#424343;}.cls-3{fill:#383837;}.cls-4{fill:#373736;}.cls-5{fill:#cd6d2f;}</style></defs><title>ico_solicitudes</title><g id="Capa_2" data-name="Capa 2"><g id="Capa_1-2" data-name="Capa 1"><rect class="cls-1" x="5.32" y="1.17" width="12.72" height="3.82" rx="1.27" ry="1.27"/><path class="cls-2" d="M15.84,5.74H7.53a3,3,0,0,1-3-3V1.17a.75.75,0,1,1,1.51,0V2.78A1.45,1.45,0,0,0,7.53,4.23h8.32a1.45,1.45,0,0,0,1.45-1.45V1.17a.75.75,0,0,1,1.51,0V2.78A3,3,0,0,1,15.84,5.74Z"/><path class="cls-3" d="M17.16,29.22l-10.71.1A6.24,6.24,0,0,1,.16,23.15L0,6.39A6.24,6.24,0,0,1,6.17.1L16.89,0a6.24,6.24,0,0,1,6.29,6.17l.15,16.76A6.24,6.24,0,0,1,17.16,29.22ZM6.19,1.84A4.5,4.5,0,0,0,1.74,6.37L1.9,23.13a4.5,4.5,0,0,0,4.53,4.45l10.71-.1a4.5,4.5,0,0,0,4.45-4.53L21.43,6.19A4.5,4.5,0,0,0,16.9,1.74Z"/><path class="cls-4" d="M10.48,10.53H5.73A.75.75,0,1,1,5.73,9h4.75a.75.75,0,1,1,0,1.51Z"/><path class="cls-5" d="M15.6,11.37a.75.75,0,0,1-.49-.18L13.51,9.8a.75.75,0,0,1,1-1.13l1.08.94L17.85,7.4a.75.75,0,1,1,1,1.08l-2.77,2.69A.75.75,0,0,1,15.6,11.37Z"/><path class="cls-4" d="M10.48,16.8H5.73a.75.75,0,0,1,0-1.51h4.75a.75.75,0,1,1,0,1.51Z"/><path class="cls-5" d="M15.6,17.64a.75.75,0,0,1-.49-.18l-1.6-1.39a.75.75,0,1,1,1-1.13l1.08.94,2.28-2.21a.75.75,0,1,1,1,1.08l-2.77,2.69A.75.75,0,0,1,15.6,17.64Z"/><path class="cls-4" d="M10.48,23.07H5.73a.75.75,0,0,1,0-1.51h4.75a.75.75,0,1,1,0,1.51Z"/><path class="cls-5" d="M15.6,23.91a.75.75,0,0,1-.49-.18l-1.6-1.39a.75.75,0,1,1,1-1.13l1.08.94,2.28-2.21a.75.75,0,1,1,1,1.08L16.12,23.7A.75.75,0,0,1,15.6,23.91Z"/></g></g></svg>