<svg xmlns="http://www.w3.org/2000/svg" viewBox="0 0 38.5 29.22"><defs><style>.cls-1{fill:#cd6d2f;}.cls-2{fill:#383837;}.cls-3{fill:#373736;}.cls-4{fill:#fff;}.cls-5{fill:#69b0e2;}</style></defs><title>ico_herramientas</title><g id="Capa_2" data-name="Capa 2"><g id="Capa_1-2" data-name="Capa 1"><rect class="cls-1" x="-3.36" y="11.93" width="12.72" height="3.82" rx="1.27" ry="1.27" transform="translate(-10.84 16.83) rotate(-90)"/><path class="cls-2" d="M2.7,20.95H1.09a.75.75,0,0,1,0-1.51H2.7A1.45,1.45,0,0,0,4.15,18V9.68A1.45,1.45,0,0,0,2.7,8.23H1.09a.75.75,0,0,1,0-1.51H2.7a3,3,0,0,1,3,3V18A3,3,0,0,1,2.7,20.95Z"/><path class="cls-2" d="M16.94,29.22H6.23A6.24,6.24,0,0,1,0,23V6.23A6.24,6.24,0,0,1,6.23,0H16.94a6.24,6.24,0,0,1,6.23,6.23V23A6.24,6.24,0,0,1,16.94,29.22ZM6.23,1.74A4.5,4.5,0,0,0,1.74,6.23V23a4.5,4.5,0,0,0,4.49,4.49H16.94A4.5,4.5,0,0,0,21.43,23V6.23a4.5,4.5,0,0,0-4.49-4.49Z"/><path class="cls-3" d="M17.82,9.13H8.31a.75.75,0,0,1,0-1.51h9.51a.75.75,0,1,1,0,1.51Z"/><path class="cls-3" d="M17.82,12.48H8.31a.75.75,0,1,1,0-1.51h9.51a.75.75,0,1,1,0,1.51Z"/><path class="cls-3" d="M17.82,15.83H8.31a.75.75,0,1,1,0-1.51h9.51a.75.75,0,1,1,0,1.51Z"/><polygon class="cls-4" points="23.94 13.63 18.38 19.11 17.59 24.57 23.68 23.99 23.94 13.63"/><path id="_Trazado_" data-name="&lt;Trazado&gt;" class="cls-5" d="M37.87,8.63,33.81,4.57a.63.63,0,0,0-.9,0L30.53,6.94l5,5,2.38-2.38A.64.64,0,0,0,37.87,8.63Z"/><path class="cls-2" d="M18.14,18.63h0l0,.05v0l0,.08v0l0,.06v0l-.77,5.74a.5.5,0,0,0,.14.42.49.49,0,0,0,.42.14l5.74-.77h0l.06,0h0l.08,0h0l.05,0h0L34.27,13.85a.49.49,0,0,0-.7-.7L23.47,23.26l-1.78-1.78L31.77,11.39a.49.49,0,0,0-.7-.7L21,20.77,19.2,19,29.29,8.9a.49.49,0,0,0-.7-.7L18.15,18.64Zm4.26,5-4.11.55L18.85,20l3.56,3.56Z"/><path class="cls-2" d="M17.72,25.45a.72.72,0,0,1-.51-.21.73.73,0,0,1-.2-.6l.78-5.8,0-.09.05-.12v0l.26-.28h0L28.43,8a.72.72,0,1,1,1,1L19.52,19,21,20.45l9.93-9.93a.72.72,0,0,1,1,1L22,21.47l1.46,1.46L33.41,13a.72.72,0,1,1,1,1L24,24.47l-.1.09,0,0h0l-.13-.19.06.23a.29.29,0,0,1-.12,0l-.06,0-5.76.78ZM18.23,19l-.77,5.71a.27.27,0,0,0,.07.22.25.25,0,0,0,.22.08l5.8-.78h0l.05,0h0L34.11,13.69a.27.27,0,0,0,0-.38.27.27,0,0,0-.38,0L23.47,23.58l-2.1-2.1L31.61,11.23a.27.27,0,0,0,0-.38.27.27,0,0,0-.38,0L21,21.09,18.88,19,29.13,8.74a.27.27,0,0,0,0-.38.27.27,0,0,0-.38,0L18.22,18.88h0ZM18,24.4l.65-4.86,4.06,4.06-.24.2h-.07Zm1-3.89-.45,3.37,3.37-.45Z"/><path class="cls-2" d="M37.76,7.83,34.61,4.67a1.78,1.78,0,0,0-2.51,0L30.17,6.59a.5.5,0,0,0,0,.7l5,5a.5.5,0,0,0,.7,0l1.92-1.92A1.77,1.77,0,0,0,37.76,7.83Zm-2.27,3.38L31.22,6.94,32.8,5.37a.79.79,0,0,1,1.11,0l3.15,3.15a.79.79,0,0,1,0,1.11Z"/><path class="cls-2" d="M35.49,12.62a.72.72,0,0,1-.51-.21l-5-5a.72.72,0,0,1,0-1l1.92-1.92a2,2,0,0,1,1.42-.59h0a2,2,0,0,1,1.42.59l3.15,3.15a2,2,0,0,1,0,2.83L36,12.41A.72.72,0,0,1,35.49,12.62ZM33.35,4.38a1.54,1.54,0,0,0-1.1.45L30.33,6.75a.27.27,0,0,0,0,.38l5,5a.27.27,0,0,0,.38,0l1.92-1.92A1.55,1.55,0,0,0,37.6,8L34.45,4.83a1.54,1.54,0,0,0-1.1-.45Zm2.14,7.15L30.9,6.94l1.73-1.73a1,1,0,0,1,1.43,0l3.15,3.15a1,1,0,0,1,0,1.43ZM31.54,6.94l3.95,3.95L36.9,9.48a.56.56,0,0,0,0-.8L33.75,5.53a.56.56,0,0,0-.8,0Z"/></g></g></svg>