<svg xmlns="http://www.w3.org/2000/svg" viewBox="0 0 19.98 20"><defs><style>.cls-1{fill:#69b0e2;}.cls-2{fill:#383837;}</style></defs><title>ico_Edit</title><g id="Capa_2" data-name="Capa 2"><g id="Capa_1-2" data-name="Capa 1"><path id="_Trazado_" data-name="&lt;Trazado&gt;" class="cls-1" d="M19.59,4.25,15.74.39a.6.6,0,0,0-.85,0L12.63,2.65l4.71,4.71L19.6,5.1A.61.61,0,0,0,19.59,4.25Z"/><path class="cls-2" d="M.87,13.75h0l0,.05v0l0,.07V14L0,19.47a.48.48,0,0,0,.13.39A.46.46,0,0,0,.53,20L6,19.26H6.1l.07,0h0l.05,0h0l9.93-9.93a.47.47,0,0,0-.66-.66l-9.6,9.6L4.23,16.44,13.8,6.87a.47.47,0,0,0-.66-.66L3.56,15.78,1.87,14.09l9.58-9.58a.47.47,0,0,0-.66-.66L.87,13.75Zm4,4.71L1,19l.53-3.91,3.38,3.38Z"/><path class="cls-2" d="M19.49,3.49l-3-3a1.69,1.69,0,0,0-2.39,0L12.29,2.32a.47.47,0,0,0,0,.66L17,7.69a.47.47,0,0,0,.66,0l1.82-1.82A1.68,1.68,0,0,0,19.49,3.49ZM17.34,6.7,13.29,2.65l1.49-1.49a.75.75,0,0,1,1.06,0l3,3a.75.75,0,0,1,0,1.06Z"/></g></g></svg>