<svg xmlns="http://www.w3.org/2000/svg" viewBox="0 0 21.84 28.62"><defs><style>.cls-1{fill:#cd6d2f;}.cls-2{fill:#69b0e2;}.cls-3{fill:#383837;}</style></defs><title>ico_alerta</title><g id="Capa_2" data-name="Capa 2"><g id="Capa_1-2" data-name="Capa 1"><path class="cls-1" d="M8.5,24.75a2.65,2.65,0,1,0,4.94,0Z"/><path class="cls-2" d="M12.83,4V2.75a1.86,1.86,0,1,0-3.72,0V4a1.83,1.83,0,0,0,.22.86h3.27A1.83,1.83,0,0,0,12.83,4Z"/><path class="cls-3" d="M21.64,22.92l-1.47-2.76V13.36a9.27,9.27,0,0,0-6.68-8.89V2.57a2.57,2.57,0,1,0-5.13,0v1.9a9.27,9.27,0,0,0-6.68,8.89v6.81L.2,22.92a1.7,1.7,0,0,0,1.5,2.5H7.53a3.39,3.39,0,0,0,6.77,0h5.83a1.7,1.7,0,0,0,1.5-2.5ZM9.71,2.57a1.21,1.21,0,1,1,2.42,0V4.19a9.29,9.29,0,0,0-2.42,0V2.57ZM3,13.36a7.89,7.89,0,1,1,15.78,0V19.6H3Zm7.89,13.91a2,2,0,0,1-2-1.84h4.05A2,2,0,0,1,10.92,27.26Zm9.51-3.37a.33.33,0,0,1-.29.16H1.7a.34.34,0,0,1-.3-.5L2.79,21H19.05l1.39,2.6A.33.33,0,0,1,20.43,23.9Z"/></g></g></svg>