<svg xmlns="http://www.w3.org/2000/svg" viewBox="0 0 44.92 29.74"><defs><style>.cls-1{fill:#383837;}.cls-2{fill:#85bdd4;}.cls-3{fill:#cd6d2f;}.cls-4{fill:#373736;}.cls-5{fill:#fff;}</style></defs><title>ico_flexibilidad</title><g id="Capa_2" data-name="Capa 2"><g id="Capa_1-2" data-name="Capa 1"><path class="cls-1" d="M33.45,9.45V23.51a6.24,6.24,0,0,1-6.23,6.23h-21A6.24,6.24,0,0,1,0,23.51V9.45A6.24,6.24,0,0,1,6.23,3.21h21A6.24,6.24,0,0,1,33.45,9.45ZM1.74,23.51A4.5,4.5,0,0,0,6.23,28h21a4.5,4.5,0,0,0,4.49-4.49V9.45A4.5,4.5,0,0,0,27.22,5h-21A4.5,4.5,0,0,0,1.74,9.45Z"/><rect class="cls-2" x="22.97" y="11.09" width="20.97" height="12.57" rx="2" ry="2"/><path class="cls-3" d="M11.2,15.38H6.44a.75.75,0,0,1,0-1.51H11.2a.75.75,0,0,1,0,1.51Z"/><path class="cls-4" d="M11.2,18.74H6.44a.75.75,0,0,1,0-1.51H11.2a.75.75,0,0,1,0,1.51Z"/><path class="cls-4" d="M11.2,22.09H6.44a.75.75,0,0,1,0-1.51H11.2a.75.75,0,0,1,0,1.51Z"/><path class="cls-3" d="M19.22,15.38H14.47a.75.75,0,0,1,0-1.51h4.75a.75.75,0,0,1,0,1.51Z"/><path class="cls-4" d="M19.22,18.74H14.47a.75.75,0,0,1,0-1.51h4.75a.75.75,0,0,1,0,1.51Z"/><path class="cls-4" d="M19.22,22.09H14.47a.75.75,0,0,1,0-1.51h4.75a.75.75,0,0,1,0,1.51Z"/><path class="cls-5" d="M36.3,18.72c0-1.7-1.53-2-2.73-2-.82-.05-1.19-.28-1.19-.7s.41-.63,1.16-.63a2.15,2.15,0,0,1,1.58.57l.88-1a3.18,3.18,0,0,0-1.85-.81V12.91h-1.4v1.19c-1,.19-1.93.75-1.93,1.92,0,1.45,1.44,1.89,2.64,2,.91.05,1.27.23,1.27.67s-.56.78-1.15.76a3.5,3.5,0,0,1-2.2-.89l-.78,1.13a3.5,3.5,0,0,0,2.29,1.11v1.06h1.4V20.75A2.12,2.12,0,0,0,36.3,18.72Z"/><path class="cls-1" d="M10.32,8.35a1,1,0,0,1-1-1V1a1,1,0,0,1,2,0V7.37A1,1,0,0,1,10.32,8.35Z"/><path class="cls-1" d="M23.79,8.35a1,1,0,0,1-1-1V1a1,1,0,0,1,2,0V7.37A1,1,0,0,1,23.79,8.35Z"/><path class="cls-1" d="M40.92,24.64H26a4,4,0,0,1-4-4V14.1a4,4,0,0,1,4-4H40.92a4,4,0,0,1,4,4v6.54A4,4,0,0,1,40.92,24.64ZM26,12.07a2,2,0,0,0-2,2v6.54a2,2,0,0,0,2,2H40.92a2,2,0,0,0,2-2V14.1a2,2,0,0,0-2-2Z"/></g></g></svg>