<svg xmlns="http://www.w3.org/2000/svg" viewBox="0 0 30.82 30.82"><defs><style>.cls-1{fill:#69b0e2;}.cls-2{fill:#383837;}</style></defs><title>ico_bundle</title><g id="Capa_2" data-name="Capa 2"><g id="Capa_1-2" data-name="Capa 1"><path class="cls-1" d="M13.34,5.43a3.5,3.5,0,0,0-.79.09V.93H.9V13.08H5.14a2,2,0,0,0-.16.79,1.78,1.78,0,0,0,1.68,1.86,1.78,1.78,0,0,0,1.68-1.86,2,2,0,0,0-.16-.79h4.38V8.2a3.5,3.5,0,0,0,.79.09c1.26,0,2.29-.64,2.29-1.43S14.6,5.43,13.34,5.43Z"/><path class="cls-2" d="M30.13,5.07H17.95a.69.69,0,0,0-.69.69v4.57a.69.69,0,0,0,.69.69h0a.7.7,0,0,0,.22,0l.64-.21a1.13,1.13,0,1,1,0,2.16l-.64-.21a.69.69,0,0,0-.88.44.72.72,0,0,0,0,.22v3.87H13.38a.69.69,0,0,0-.69.69.72.72,0,0,0,0,.22l.21.64a1.13,1.13,0,1,1-2.16.71,1.12,1.12,0,0,1,0-.7l.21-.64a.69.69,0,0,0-.44-.88.7.7,0,0,0-.22,0H5.77a.69.69,0,0,0-.69.69V30.13a.69.69,0,0,0,.69.69H30.13a.69.69,0,0,0,.69-.69V5.77A.69.69,0,0,0,30.13,5.07Zm-3.86,10.5a2.52,2.52,0,0,0-4.7,1.68H18.64V14.32a2.52,2.52,0,1,0,0-4.94V6.46H29.43V17.25H26.5A2.5,2.5,0,0,0,26.27,15.57Zm-15.17,6a2.52,2.52,0,0,0,3.22-2.92h2.93v3.87a.69.69,0,0,0,.69.69.74.74,0,0,0,.22,0L18.8,23a1.13,1.13,0,1,1,0,2.16l-.64-.21a.69.69,0,0,0-.88.44.7.7,0,0,0,0,.22v3.87H6.46V18.64H9.39A2.52,2.52,0,0,0,11.1,21.56Zm7.54,4.94a2.52,2.52,0,1,0,0-4.93V18.64h3.87a.69.69,0,0,0,.66-.91L23,17.09a1.13,1.13,0,1,1,2.16-.71,1.12,1.12,0,0,1,0,.7l-.21.64a.69.69,0,0,0,.44.88.72.72,0,0,0,.22,0h3.87V29.43H18.64Z"/><path class="cls-2" d="M16.32,5.62a2.52,2.52,0,0,0-2.75-1.3V.69A.69.69,0,0,0,12.87,0H.69A.69.69,0,0,0,0,.69V12.87a.69.69,0,0,0,.69.69H4.32a2.52,2.52,0,1,0,4.93,0h3.62a.69.69,0,0,0,.69-.69V9.25a2.52,2.52,0,0,0,2.75-3.63ZM13.73,7.86l-.64-.21a.69.69,0,0,0-.88.44.7.7,0,0,0,0,.22v3.87H8.3a.69.69,0,0,0-.69.69.71.71,0,0,0,0,.22l.21.64a1.14,1.14,0,0,1-.73,1.43A1.13,1.13,0,0,1,5.7,13.73l.21-.64a.69.69,0,0,0-.44-.88.7.7,0,0,0-.22,0H1.39V1.39H12.18V5.26a.69.69,0,0,0,.69.69,1.08,1.08,0,0,0,.22,0l.64-.21a1.13,1.13,0,0,1,.71,2.16A1.13,1.13,0,0,1,13.73,7.86Z"/></g></g></svg>