<svg xmlns="http://www.w3.org/2000/svg" viewBox="0 0 31.6 33.54"><defs><style>.cls-1{fill:#85bdd4;}.cls-2{fill:#424343;}.cls-3{fill:#383837;}.cls-4{fill:#373736;}.cls-5{fill:#cd6d2f;}.cls-6{fill:#fff;}</style></defs><title>ico_protegemos_derechos</title><g id="Capa_2" data-name="Capa 2"><g id="Capa_1-2" data-name="Capa 1"><rect class="cls-1" x="5.32" y="1.17" width="12.72" height="3.82" rx="1.27" ry="1.27"/><path class="cls-2" d="M15.84,5.74H7.53a3,3,0,0,1-3-3V1.17a.75.75,0,1,1,1.51,0V2.78A1.45,1.45,0,0,0,7.53,4.23h8.32a1.45,1.45,0,0,0,1.45-1.45V1.17a.75.75,0,0,1,1.51,0V2.78A3,3,0,0,1,15.84,5.74Z"/><path class="cls-3" d="M17.16,29.22l-10.71.1A6.24,6.24,0,0,1,.16,23.15L0,6.39A6.24,6.24,0,0,1,6.17.1L16.89,0a6.24,6.24,0,0,1,6.29,6.17l.15,16.76A6.24,6.24,0,0,1,17.16,29.22ZM6.19,1.84A4.5,4.5,0,0,0,1.74,6.37L1.9,23.13a4.5,4.5,0,0,0,4.53,4.45l10.71-.1a4.5,4.5,0,0,0,4.45-4.53L21.43,6.19A4.5,4.5,0,0,0,16.9,1.74Z"/><path class="cls-4" d="M16.19,10H11.43a.75.75,0,0,1,0-1.51h4.75a.75.75,0,1,1,0,1.51Z"/><path class="cls-4" d="M11,20.06H6.22a.75.75,0,0,1,0-1.51H11a.75.75,0,0,1,0,1.51Z"/><path class="cls-4" d="M16.19,13.36H6.68a.75.75,0,0,1,0-1.51h9.51a.75.75,0,1,1,0,1.51Z"/><path class="cls-4" d="M16.19,16.71H6.68a.75.75,0,0,1,0-1.51h9.51a.75.75,0,1,1,0,1.51Z"/><path class="cls-5" d="M22.7,16.7a8,8,0,1,1-6.29,3.14A8,8,0,0,1,22.7,16.7Z"/><path class="cls-3" d="M22.86,33.54a8.82,8.82,0,1,0-8-4.89A8.82,8.82,0,0,0,22.86,33.54ZM17,20.32a7.22,7.22,0,1,1-1.49,4.46A7.22,7.22,0,0,1,17,20.32Z"/><path class="cls-6" d="M25.63,26c0-1.7-1.55-2-2.75-2-.82,0-1.19-.27-1.2-.69s.41-.64,1.16-.64a2.15,2.15,0,0,1,1.58.56l.87-1a3.18,3.18,0,0,0-1.86-.79V20.25H22v1.19c-1,.2-1.92.77-1.91,1.94,0,1.45,1.45,1.88,2.66,2,.91,0,1.27.22,1.27.66s-.55.78-1.14.77a3.5,3.5,0,0,1-2.21-.87L19.95,27a3.5,3.5,0,0,0,2.3,1.08v1.06h1.4V28.08A2.12,2.12,0,0,0,25.63,26Z"/></g></g></svg>