<svg xmlns="http://www.w3.org/2000/svg" viewBox="0 0 23.66 30"><defs><style>.cls-1{fill:#85bdd4;}.cls-2{fill:#383837;}</style></defs><title>ico_Ubicación</title><g id="Capa_2" data-name="Capa 2"><g id="Capa_1-2" data-name="Capa 1"><circle class="cls-1" cx="11.83" cy="11.77" r="3.23"/><path class="cls-2" d="M11.83,0A11.83,11.83,0,0,0,7.05,22.65l3.85,6.81a1.06,1.06,0,0,0,1.85,0l3.85-6.81A11.83,11.83,0,0,0,11.83,0Zm3.63,20.83a1.06,1.06,0,0,0-.53.46l-3.1,5.49-3.1-5.49a1.06,1.06,0,0,0-.53-.46,9.7,9.7,0,1,1,7.26,0Z"/><path class="cls-2" d="M11.83,7.3a4.47,4.47,0,1,0,4.47,4.47A4.47,4.47,0,0,0,11.83,7.3Zm0,6.81a2.34,2.34,0,1,1,2.34-2.34A2.34,2.34,0,0,1,11.83,14.11Z"/></g></g></svg>