<svg xmlns="http://www.w3.org/2000/svg" viewBox="0 0 31.8 31.7"><defs><style>.cls-1{fill:#383837;}.cls-2{fill:#85bdd4;}.cls-3{fill:#373736;}</style></defs><title>ico_convenios</title><g id="Capa_2" data-name="Capa 2"><g id="Capa_1-2" data-name="Capa 1"><path class="cls-1" d="M31.55,20.4l-1.49-1.48a.85.85,0,0,0-.61-.25h0a.86.86,0,0,0-.6,1.47l1.49,1.48a.86.86,0,0,0,1.21-1.22Z"/><path class="cls-1" d="M28.54,17.4a.86.86,0,0,0-1.22,1.22.86.86,0,1,0,1.22-1.22Z"/><path class="cls-1" d="M20,24.11a.86.86,0,0,0-.68-.25l-.19,0A4.2,4.2,0,0,1,17,23.5l.08-.08a9.77,9.77,0,0,0,6.22-2.84l5.93-5.93a2.55,2.55,0,0,0-1-4.21,2.56,2.56,0,0,0-1.72-3.26,2.55,2.55,0,0,0-1.79-3,2.56,2.56,0,0,0-.69-2.34,2.6,2.6,0,0,0-2.85-.53A4.33,4.33,0,0,0,18.15,0h-4.8a.86.86,0,0,0-.86.86v.8a3,3,0,0,0,.05.56,2.58,2.58,0,0,0-2.33.69,2.54,2.54,0,0,0-.69,2.34,2.55,2.55,0,0,0-1.8,3,2.53,2.53,0,0,0-1.1.65A2.57,2.57,0,0,0,6,11.51a2.56,2.56,0,0,0-1,4.22l1,1L.25,22.6a.86.86,0,0,0,0,1.22.88.88,0,0,0,1.22,0L7.4,17.88a2.6,2.6,0,0,0,2.9-.5A2.56,2.56,0,0,0,11,15.73a2.55,2.55,0,0,0,2.4-2.4,2.55,2.55,0,0,0,2.39-2.39,2.55,2.55,0,0,0,2-4L21.7,3a.85.85,0,0,1,1.18,0,.83.83,0,0,1,0,1.18L20.1,7a.86.86,0,0,0,0,1.22.88.88,0,0,0,1.22,0L23.49,6a.83.83,0,0,1,1.18,0,.83.83,0,0,1,0,1.18L22.5,9.39a.86.86,0,0,0,0,1.22.88.88,0,0,0,1.22,0L25.29,9a.85.85,0,0,1,1.18,0,.83.83,0,0,1,0,1.18l-1.57,1.57a.86.86,0,0,0,0,1.22.88.88,0,0,0,1.22,0l.75-.75a.83.83,0,0,1,1.18,0,.83.83,0,0,1,0,1.18L22.1,19.36a8,8,0,0,1-5.41,2.36.86.86,0,0,0-.58.25l-5.48,5.5a.86.86,0,1,0,1.22,1.22l3.89-3.91a6,6,0,0,0,3.32.83l3.08,3.08a.88.88,0,0,0,1.22,0,.86.86,0,0,0,0-1.22ZM17.2,4.68A.86.86,0,0,0,17.2,3H15.51a1.31,1.31,0,0,1-1.3-1.24h3.94a2.61,2.61,0,0,1,1.75.68L16.6,5.7l-1-1ZM12,5.88l-.57-.57a.83.83,0,0,1,0-1.18.85.85,0,0,1,1.18,0L16.27,7.8a.83.83,0,0,1,0,1.18h0a.82.82,0,0,1-.59.24h0A.83.83,0,0,1,15.09,9l-3-3V5.93Zm2.13,4.91a.82.82,0,0,1-.24.59.83.83,0,0,1-1.18,0L9.62,8.3A.83.83,0,0,1,10.8,7.12l3.07,3.07A.82.82,0,0,1,14.12,10.79Zm-2.39,2.39a.83.83,0,0,1-.83.83h0a.82.82,0,0,1-.59-.24L7.83,11.29A.83.83,0,1,1,9,10.12l2.47,2.47A.82.82,0,0,1,11.72,13.18ZM9.33,15.57a.82.82,0,0,1-.24.59.85.85,0,0,1-1.18,0L6.26,14.51a.83.83,0,0,1,1.18-1.18L9.08,15A.82.82,0,0,1,9.33,15.57Z"/><path class="cls-2" d="M1.45,23.79a1.6,1.6,0,0,1,0-2.3l2.27-2.15a1.74,1.74,0,0,1,2.66.22C7.87,21.07,11.78,25,11.78,25s1.38,1.14.62,2-3.15,3.15-3.15,3.15-.62,1.2-2.22-.62C5.91,28.28,3.06,25.41,1.45,23.79Z"/><path class="cls-3" d="M8.57,31.7A3.19,3.19,0,0,1,6.3,30.36C5.19,29.1,2.35,26.24.76,24.64a2.58,2.58,0,0,1,.05-3.7L3.07,18.8A2.74,2.74,0,0,1,4.92,18a2.88,2.88,0,0,1,2.2,1c1.46,1.51,5.36,5.42,5.36,5.42a3.23,3.23,0,0,1,1.13,2,1.87,1.87,0,0,1-.45,1.4c-.71.83-2.69,2.73-3.14,3.15a1.77,1.77,0,0,1-1.21.72Zm0-2h0ZM4.88,19.8h0a.86.86,0,0,0-.49.21L2,22.28a.64.64,0,0,0,0,.92H2c1.67,1.67,4.65,4.67,5.83,6a2.73,2.73,0,0,0,.76.66l.08-.09s2.45-2.32,3.19-3.18a2,2,0,0,0-.52-.66c-.07-.06-4.12-4.13-5.64-5.7A1.28,1.28,0,0,0,4.88,19.8Z"/></g></g></svg>