<svg xmlns="http://www.w3.org/2000/svg" viewBox="0 0 35.82 30.85"><defs><style>.cls-1{fill:#cd6d2f;}.cls-2{fill:#383837;}</style></defs><title>ico_university</title><g id="Capa_2" data-name="Capa 2"><g id="Capa_1-2" data-name="Capa 1"><ellipse class="cls-1" cx="17.91" cy="9.54" rx="2.84" ry="2.09"/><path class="cls-2" d="M35.82,9.48A2.7,2.7,0,0,0,34.1,7.16L21.13.68A7.37,7.37,0,0,0,17.91,0a7.37,7.37,0,0,0-3.22.68l-13,6.48A2.7,2.7,0,0,0,0,9.48a2.7,2.7,0,0,0,1.72,2.32l2.82,1.41v7.36A6.51,6.51,0,0,0,7.87,26l6.81,3.4a7.39,7.39,0,0,0,3.22.68,7.39,7.39,0,0,0,3.22-.68L27.94,26a6.51,6.51,0,0,0,3.33-5.4V13.21L33.72,12V29.8a1,1,0,0,0,2.1,0V9.48ZM2.1,9.48A1.19,1.19,0,0,1,2.65,9l13-6.48a5.33,5.33,0,0,1,2.29-.46,5.33,5.33,0,0,1,2.28.46L31.94,8.43H21.85A4.12,4.12,0,0,0,17.91,6c-2.28,0-4.13,1.58-4.13,3.51S15.63,13,17.91,13a4.12,4.12,0,0,0,3.94-2.46H31.94L20.19,16.4a5.33,5.33,0,0,1-2.28.46h0a5.33,5.33,0,0,1-2.28-.46l-13-6.48A1.19,1.19,0,0,1,2.1,9.48Zm17.84,0c0,.77-.93,1.41-2,1.41s-2-.65-2-1.41.93-1.41,2-1.41S19.94,8.71,19.94,9.48Zm9.24,11.09A4.44,4.44,0,0,1,27,24.08l-6.81,3.4a6,6,0,0,1-4.57,0l-6.81-3.4a4.44,4.44,0,0,1-2.17-3.52V14.26l8,4a7.37,7.37,0,0,0,3.22.68,7.37,7.37,0,0,0,3.22-.68l8-4Z"/></g></g></svg>