<svg xmlns="http://www.w3.org/2000/svg" viewBox="0 0 28.65 29.22"><defs><style>.cls-1{fill:#383837;}.cls-2{fill:#cd6d2f;}</style></defs><title>ico_help</title><g id="Capa_2" data-name="Capa 2"><g id="Capa_1-2" data-name="Capa 1"><path class="cls-1" d="M14.32,29.22A14.49,14.49,0,0,1,0,14.61,14.49,14.49,0,0,1,14.32,0,14.49,14.49,0,0,1,28.65,14.61a14.73,14.73,0,0,1-2.28,7.9L28,25.68A2.25,2.25,0,0,1,27.88,28a2.28,2.28,0,0,1-2.11,1l-6.39-.7A14,14,0,0,1,14.32,29.22Zm0-27.5A12.77,12.77,0,0,0,1.72,14.61,12.77,12.77,0,0,0,14.32,27.5a12.3,12.3,0,0,0,4.62-.91l.2-.08,6.82.75a.54.54,0,0,0,.54-.79L24.37,22.4l.29-.43a13,13,0,0,0,2.27-7.37A12.77,12.77,0,0,0,14.32,1.72Z"/><path class="cls-2" d="M11.5,8.48a4.81,4.81,0,0,1,2.66-.7,5.73,5.73,0,0,1,3.44,1A3.39,3.39,0,0,1,19,11.71a3.32,3.32,0,0,1-.59,2A6.85,6.85,0,0,1,17,15l-.65.5a2,2,0,0,0-.7,1,4.06,4.06,0,0,0-.12,1.08H13.09a7.2,7.2,0,0,1,.29-2.14A3.77,3.77,0,0,1,14.6,14l.67-.52A2.34,2.34,0,0,0,15.8,13a1.85,1.85,0,0,0,.37-1.11,2.14,2.14,0,0,0-.41-1.27A1.71,1.71,0,0,0,14.27,10a1.64,1.64,0,0,0-1.5.71,2.72,2.72,0,0,0-.44,1.47H9.68A4.28,4.28,0,0,1,11.5,8.48ZM13,18.79h2.74v2.65H13Z"/></g></g></svg>