<svg xmlns="http://www.w3.org/2000/svg" viewBox="0 0 20.85 22.29"><defs><style>.cls-1{fill:#383837;}.cls-2,.cls-4{fill:none;stroke-linecap:round;stroke-miterlimit:10;}.cls-2{stroke:#373736;}.cls-3{fill:#c06d22;}.cls-4{stroke:#fff;}</style></defs><title>ico_delete</title><g id="Capa_2" data-name="Capa 2"><g id="Capa_1-2" data-name="Capa 1"><path class="cls-1" d="M11.24,19.39H4.14A4.14,4.14,0,0,1,0,15.25V4.14A4.14,4.14,0,0,1,4.14,0h7.11a4.14,4.14,0,0,1,4.14,4.14V15.25A4.14,4.14,0,0,1,11.24,19.39ZM4.14,1.16a3,3,0,0,0-3,3V15.25a3,3,0,0,0,3,3h7.11a3,3,0,0,0,3-3V4.14a3,3,0,0,0-3-3Z"/><line class="cls-2" x1="4.37" y1="6.13" x2="10.68" y2="6.13"/><line class="cls-2" x1="4.37" y1="8.36" x2="10.68" y2="8.36"/><line class="cls-2" x1="4.37" y1="10.58" x2="10.68" y2="10.58"/><path class="cls-3" d="M15,11.11a5.32,5.32,0,1,1-4.19,2A5.32,5.32,0,0,1,15,11.11Z"/><path class="cls-1" d="M15,22.29A5.85,5.85,0,1,0,9.73,19,5.85,5.85,0,0,0,15,22.29Zm-3.77-8.81a4.79,4.79,0,1,1-1,3A4.79,4.79,0,0,1,11.23,13.48Z"/><line class="cls-4" x1="13.37" y1="14.81" x2="16.63" y2="18.06"/><line class="cls-4" x1="16.63" y1="14.81" x2="13.37" y2="18.06"/></g></g></svg>