<svg xmlns="http://www.w3.org/2000/svg" viewBox="0 0 24.73 40"><defs><style>.cls-1{fill:#85bdd4;}.cls-2{fill:#fff;}.cls-3{fill:#373736;}.cls-4{fill:#cd6d2f;}</style></defs><title>ico_innovacion</title><g id="Capa_2" data-name="Capa 2"><g id="Capa_1-2" data-name="Capa 1"><path class="cls-1" d="M6.87,31.83a11.39,11.39,0,1,1,11,0"/><path class="cls-2" d="M18.07,19.72a2.61,2.61,0,0,0-2.35-.25,2.66,2.66,0,0,0-1.32,1.7v2.3a17.56,17.56,0,0,1-2,0l0,.43,0-.43a17.58,17.58,0,0,1-2,0v-2.3A2.66,2.66,0,0,0,9,19.47a2.62,2.62,0,0,0-2.35.25A2,2,0,0,0,5.37,22c.27.94,1.51,1.94,4.1,2.23v7.86h.87V24.33a18.44,18.44,0,0,0,2,0,18.43,18.43,0,0,0,2,0v7.79h.87V24.26C17.86,24,19.1,23,19.36,22A2,2,0,0,0,18.07,19.72Zm-8.6,3.66c-2-.24-3.07-.91-3.27-1.6-.13-.46.19-.94.87-1.3a2.42,2.42,0,0,1,1.1-.33,1.15,1.15,0,0,1,.48.1,1.75,1.75,0,0,1,.82,1.07Zm9.06-1.6c-.2.69-1.28,1.36-3.27,1.6V21.32a1.76,1.76,0,0,1,.82-1.06,1.81,1.81,0,0,1,1.58.23C18.34,20.84,18.66,21.33,18.53,21.79Z"/><path class="cls-3" d="M17.21,36.28H7.52a2.72,2.72,0,0,1,0-5.44h9.69a2.72,2.72,0,0,1,0,5.44ZM7.52,32.81a.76.76,0,0,0,0,1.52h9.69a.76.76,0,0,0,0-1.52Z"/><path class="cls-3" d="M16.46,40H8.27a2.72,2.72,0,0,1,0-5.44h8.19a2.72,2.72,0,0,1,0,5.44ZM8.27,36.52a.76.76,0,0,0,0,1.52h8.19a.76.76,0,0,0,0-1.52Z"/><path class="cls-4" d="M5.28,9.63a1,1,0,0,1-.79-.4L1.7,5.42A1,1,0,0,1,3.28,4.27L6.06,8.07a1,1,0,0,1-.79,1.56Z"/><path class="cls-4" d="M19.42,9.63a1,1,0,0,1-.79-1.56l2.78-3.81A1,1,0,1,1,23,5.42L20.21,9.23A1,1,0,0,1,19.42,9.63Z"/><path class="cls-4" d="M12.72,8.18a1,1,0,0,1-1-1l0-6.22a1,1,0,0,1,1-1h0a1,1,0,0,1,1,1l0,6.22a1,1,0,0,1-1,1Z"/><path class="cls-3" d="M17.86,32.81A1,1,0,0,1,17.39,31a10.41,10.41,0,1,0-10,0,1,1,0,1,1-.95,1.71,12.37,12.37,0,1,1,11.94,0A1,1,0,0,1,17.86,32.81Z"/></g></g></svg>