<svg xmlns="http://www.w3.org/2000/svg" viewBox="0 0 54.69 65.82"><defs><style>.cls-1{fill:#cd6d2f;}.cls-2{fill:#85bdd4;}.cls-3{fill:#424343;}.cls-4{fill:#3e4040;}.cls-5{fill:#fff;}</style></defs><title>ico_collaborator</title><g id="Capa_2" data-name="Capa 2"><g id="Capa_1-2" data-name="Capa 1"><rect class="cls-1" x="3.79" y="31.5" width="9.41" height="1.72"/><rect class="cls-2" x="4.16" y="34.39" width="8.87" height="1.62"/><rect class="cls-1" x="4.26" y="37.15" width="8.87" height="1.62"/><path class="cls-1" d="M28,3.55C21.41,3,16.78,6.64,14.18,11.17a1.69,1.69,0,0,1,.46,0v.05l-.45-.07s-.82,1.89-1.3,3.41a2.24,2.24,0,0,1,2.19,1,3.32,3.32,0,0,1,.45,2.18c1.89-2.73,4.82-4.5,7.59-6.17C26.81,9.4,30.1,9,34.33,9h0a20.45,20.45,0,0,1,3.14-.26c.29,0,.57,0,.86,0l.12,0a3.2,3.2,0,0,1,.4-.19s0-.08.06-.12C36.64,5.91,33.23,3.95,28,3.55Z"/><rect class="cls-3" x="22.06" y="38.8" width="3.36" height="1.53" transform="translate(-16.59 61.97) rotate(-88.1)"/><rect class="cls-3" x="30.97" y="37.88" width="1.53" height="3.47"/><path class="cls-3" d="M41.15,21.89l-1.49.34a12.17,12.17,0,0,1-2.41,10.32,12.49,12.49,0,0,1-9.74,4.84h-.06c-7.91,0-12.37-7.25-12.55-14.1l-.71,0c-.08.17-.18.34-.25.51a2.06,2.06,0,0,1-.48.69c.66,7.2,5.58,14.4,14,14.4h.07A14,14,0,0,0,38.45,33.5,13.69,13.69,0,0,0,41.15,21.89Z"/><path class="cls-3" d="M42.38,21.7A11.22,11.22,0,0,1,40.08,21a10.08,10.08,0,0,1,.47,1.78,10.78,10.78,0,0,0,1.57.41c1.79.3,2.29.88,2.15,2.49-.22,2.47-2.38,3-4.16,3v1.53c3.37,0,5.44-1.6,5.68-4.39C46.07,22.71,44.11,22,42.38,21.7Z"/><path class="cls-3" d="M27.25,65.82C9.66,65.82.7,59.57.32,59.3a.76.76,0,0,1,.89-1.24c.09.07,9.48,6.56,27.38,6.23S53.4,59,53.47,58.91a.76.76,0,0,1,.92,1.22c-.29.22-7.29,5.35-25.77,5.69Z"/><path class="cls-1" d="M18.72,42.27l1.91,3.34,1.53,1.72,1.24.67,1.53-.76L27,45.32l.8-.85,2.25,2.18.67.57,1,.38,1-.1,2-1.14,1.72-2.57L36,41.89l-4.2-.19-2.86-.48s-1.53-.1-2.1-.1a11.49,11.49,0,0,0-1.81,0c-.57.1-1.72.19-1.72.19s-.86.1-1.14.1S18.72,42.27,18.72,42.27Z"/><path class="cls-3" d="M31.91,49.08l-4.36-3.49c-.58.52-1.68,1.5-3.26,2.94l-.25.23-.34,0c-3.28-.36-5.36-5.25-5.58-5.81l1.41-.57c.49,1.21,2.13,4.3,4,4.81C25.83,45.07,27,44,27,44l.48-.42L32,47.22c1.29-.87,3.63-2.78,3.91-4.63l1.51.23c-.5,3.22-4.89,5.88-5.08,6Z"/><path class="cls-3" d="M49.17,62.71a.76.76,0,0,1-.76-.71c-.51-7.58-4.14-13.72-10.22-17.29-6.8-4-15.62-4.14-23.62-.38a.76.76,0,1,1-.65-1.38c8.45-4,17.81-3.81,25,.44,6.52,3.84,10.42,10.41,11,18.5a.76.76,0,0,1-.71.81Z"/><path class="cls-4" d="M13.54,53a.76.76,0,0,1-.76-.76l-.15-20.12c0-.22-.38-2.81-3.74-2.63a4.1,4.1,0,0,0-4.13,2.87l.07,10a.76.76,0,0,1-.76.77h0a.76.76,0,0,1-.76-.76L3.23,32.19l0-.08A5.6,5.6,0,0,1,8.83,28c3.89-.11,5.18,2.6,5.32,4.07l.16,20.18a.76.76,0,0,1-.76.77Z"/><path class="cls-4" d="M10.48,20.94A.76.76,0,0,1,10,19.56a5.42,5.42,0,0,1,2.25-.86l0-8.11a1.14,1.14,0,0,0-.18-.64c-.4,0-.45.3-.46.49l-.11,5.69a.76.76,0,0,1-1.53,0l.11-5.68a1.92,1.92,0,0,1,1.84-2,1.68,1.68,0,0,1,1.22.47,2.54,2.54,0,0,1,.63,1.73l0,9.63-.8,0a3.76,3.76,0,0,0-2.09.61A.77.77,0,0,1,10.48,20.94Z"/><path class="cls-4" d="M7.81,16.16s0-6.27,0-6.46a2,2,0,0,1,2-2.33,1.74,1.74,0,0,1,1.39.57,2.65,2.65,0,0,1,.54,1.92.77.77,0,0,1-.84.67.76.76,0,0,1-.67-.84A1.17,1.17,0,0,0,10.07,9a.29.29,0,0,0-.24-.07c-.22,0-.53,0-.52.77,0,.22,0,6.48,0,6.48Z"/><path class="cls-4" d="M6.37,17.49a.76.76,0,0,1-.76-.76c0-4.37,0-6.67,0-6.84A1.78,1.78,0,0,1,7.44,8.38,1.78,1.78,0,0,1,9.23,9.71.76.76,0,0,1,7.74,10c0-.14-.15-.14-.26-.14s-.33.07-.35.18,0,4.12,0,6.65a.76.76,0,0,1-.76.77Z"/><path class="cls-4" d="M9.47,27.22A7.48,7.48,0,0,1,5.73,26c-2.21-1.2-2.26-4-2.26-4.12V12.8h0a1.48,1.48,0,0,1,.31-1.06,1.79,1.79,0,0,1,1.35-.66,1.8,1.8,0,0,1,1.43.42,1.65,1.65,0,0,1,.53,1.14.76.76,0,0,1-.74.78.8.8,0,0,1-.78-.72c0-.05,0-.12-.31-.1a.54.54,0,0,0-.27.07v9.2a3.5,3.5,0,0,0,1.46,2.78c1.83,1,2.52,1.06,3.14,1a6,6,0,0,0,3.33-1.35c1.15-1,1.4-1.68,1.43-2.33,0-.81,0-5.36,0-6.63-.25.12-.45.28-.47.4a.76.76,0,1,1-1.5-.25,2.56,2.56,0,0,1,2.08-1.8,1.08,1.08,0,0,1,1,.21,1.43,1.43,0,0,1,.45,1.13c0,.21.07,6,0,7a4.73,4.73,0,0,1-1.93,3.39,7.59,7.59,0,0,1-4.31,1.74Zm5.31-12h0Z"/><path class="cls-3" d="M10.9,26.71a2.31,2.31,0,0,1-.51-1.05h0a2.55,2.55,0,0,1-1.53,0,3.87,3.87,0,0,0,.87,2c1,1.17,2.64,1.76,4.93,1.76V27.9C12.87,27.9,11.58,27.49,10.9,26.71Z"/><circle class="cls-1" cx="27.33" cy="51.27" r="1.08"/><circle class="cls-1" cx="27.33" cy="55.91" r="1.08"/><circle class="cls-1" cx="27.05" cy="60.61" r="1.08"/><path class="cls-3" d="M13.2,14.57a.74.74,0,0,1-.27,0,.76.76,0,0,1-.45-1C14,9.54,18,2.81,28,2.6,34,2.5,37.34,5.78,39.51,8.67a.76.76,0,0,1-1.22.91C36.34,7,33.43,4.07,28,4.13a14.61,14.61,0,0,0-14.07,9.95A.76.76,0,0,1,13.2,14.57Z"/><path class="cls-3" d="M15.27,20.92a.76.76,0,0,1-.42-1.4C23.68,13.74,33.42,15.5,40,18a.76.76,0,1,1-.54,1.43C33.21,17.05,24,15.37,15.68,20.8A.76.76,0,0,1,15.27,20.92Z"/><path class="cls-3" d="M40.08,19.95a.76.76,0,0,1-.2-1.5,5.52,5.52,0,0,0,3.62-2.59,2.38,2.38,0,0,0,.14-1.92,5.48,5.48,0,0,0-2.8-2.82A16.5,16.5,0,0,0,33.6,9.8h0C28,9.8,19.93,12,15.76,18.12a.76.76,0,0,1-1.26-.86c3.71-5.45,11.2-9,19.08-9h0a17.92,17.92,0,0,1,7.9,1.46,7,7,0,0,1,3.58,3.7,3.94,3.94,0,0,1-.22,3.1,7,7,0,0,1-4.59,3.38Z"/><path class="cls-3" d="M29.08,3.92H29a.76.76,0,0,1-.65-.86,1.32,1.32,0,0,0-.44-1.33,1.16,1.16,0,0,0-1.19-.07A1.57,1.57,0,0,0,26,3.16a.76.76,0,0,1-1.53,0A3.06,3.06,0,0,1,26,.3a2.7,2.7,0,0,1,2.78.17,2.81,2.81,0,0,1,1.07,2.79A.76.76,0,0,1,29.08,3.92Z"/><path class="cls-3" d="M40.75,25.83a.76.76,0,0,1-.76-.76A17.86,17.86,0,0,0,38.72,19a.76.76,0,0,1,1.41-.59,19.11,19.11,0,0,1,1.39,6.65.76.76,0,0,1-.76.76Z"/><path class="cls-5" d="M17.93,11.11l-.06,0a.76.76,0,0,1-.25-1c.08-.13,2-3.13,7.56-4a.76.76,0,1,1,.25,1.5c-4.84.79-6.49,3.31-6.5,3.34A.76.76,0,0,1,17.93,11.11Z"/><circle class="cls-5" cx="27.98" cy="6.1" r="0.83"/><path class="cls-3" d="M28,33.3h0a4.32,4.32,0,0,1-4.21-2.58.76.76,0,1,1,1.44-.52,2.85,2.85,0,0,0,2.79,1.57h0a3.78,3.78,0,0,0,3.12-1.7.76.76,0,0,1,1.31.78A5.32,5.32,0,0,1,28,33.3Z"/></g></g></svg>