<svg xmlns="http://www.w3.org/2000/svg" viewBox="0 0 40.53 32.22"><defs><style>.cls-1{fill:#373736;}.cls-2{fill:#424343;}.cls-3{fill:#85bdd4;}.cls-4{fill:#cd6d2f;}.cls-5{fill:#383837;}.cls-6{fill:#fff;}</style></defs><title>ico_seguros</title><g id="Capa_2" data-name="Capa 2"><g id="Capa_1-2" data-name="Capa 1"><path class="cls-1" d="M17.36,24.38a39.64,39.64,0,0,1-14.5-2.46l-.37-.2C1,20.87.19,20.06,0,19.31c-.25-1.18,1-2.15,2-2.75.16-2,1.14-8.81,7.21-12.59L10.72,3l0,6.21a1.66,1.66,0,0,0,.48,0,1.07,1.07,0,0,0,.27-.07s0-.06,0-.1V8.9c0-.3,0-3.52,0-5.47V2.7l.69-.22a16.64,16.64,0,0,1,1.64-.42l0-2,6.9,0,.07.9s0,.54.06,1.15a15.88,15.88,0,0,1,1.66.44l.68.22v.71c0,1.94,0,5.12,0,5.43V9s0,.08,0,.12l.28,0a1.55,1.55,0,0,0,.46,0l.08-6.14,1.47.9c6.1,3.72,7.08,10.44,7.24,12.48,1,.59,2.24,1.55,2,2.73-.15.75-1,1.56-2.42,2.42h0a12.74,12.74,0,0,1-2.95,1.29A49.42,49.42,0,0,1,17.36,24.38ZM3.72,20.17S14.46,24.6,28.9,21a10.91,10.91,0,0,0,2.45-1.08h0a6.35,6.35,0,0,0,1.4-1,5.73,5.73,0,0,0-1.38-.94l-.53-.27V17c0-.07-.14-6.41-4.86-10.36l0,2.77a1.72,1.72,0,0,1-.6,1.21,2.58,2.58,0,0,1-2.06.49,2,2,0,0,1-2-2.07c0-.39,0-3.3,0-4.92a6.72,6.72,0,0,0-1.35-.26h-1l0-1c0-.3,0-.63,0-.92H15.77l0,1.94h-1a7.14,7.14,0,0,0-1.34.25c0,1.63,0,4.55,0,4.87a2,2,0,0,1-2,2.16,2.59,2.59,0,0,1-2.08-.47,1.71,1.71,0,0,1-.61-1.19V6.73c-4.69,4-4.83,10.37-4.83,10.44v.59L3.41,18A5.7,5.7,0,0,0,2,19a7.24,7.24,0,0,0,1.42,1l.26.15Z"/><path class="cls-2" d="M10.65,20.34h-.09c-6.59-.81-8-2.44-8.21-2.75a.75.75,0,0,1,1.23-.87c.07.07,1.36,1.42,7.17,2.13a.75.75,0,0,1-.09,1.5Z"/><rect class="cls-3" x="14.8" y="0.98" width="4.96" height="6.33"/><path class="cls-1" d="M20.94,8.29H13.82V0h7.12Zm-5.16-2H19V2h-3.2Z"/><path class="cls-4" d="M31.63,15.37a8,8,0,1,1-6.29,3.14A8,8,0,0,1,31.63,15.37Z"/><path class="cls-5" d="M31.78,32.22a8.82,8.82,0,1,0-8-4.89A8.82,8.82,0,0,0,31.78,32.22ZM26,19a7.22,7.22,0,1,1-1.49,4.46A7.22,7.22,0,0,1,26,19Z"/><path class="cls-6" d="M30.87,24.76h.51l2-1.65a.38.38,0,0,0-.47-.59h0L31.19,24l-.64-.75a.37.37,0,0,0-.57.48h0l.87,1Z"/><path class="cls-6" d="M31.13,25,31,25h-.06l-.08-.06,0,0-.05-.05h0l0,0-.86-1a.53.53,0,1,1,.8-.68l.54.63,1.64-1.33a.53.53,0,1,1,.66.82L31.39,25h0l0,0h-.21Zm0-.3.1,0,0,0h0l2-1.64a.23.23,0,1,0-.28-.35L31.17,24.2l-.73-.86a.22.22,0,0,0-.34.29L31,24.7h0Z"/><path class="cls-6" d="M31.52,28.38l-.13,0a6,6,0,0,1-1.75-.92,5.33,5.33,0,0,1-2.12-3.52.34.34,0,0,1,0,0V21a.37.37,0,0,1,.22-.33l3.69-1.76a.46.46,0,0,1,.4,0l3.63,1.76a.37.37,0,0,1,.22.33v3a3.76,3.76,0,0,1-.51,1.67,6.31,6.31,0,0,1-3.48,2.74A.46.46,0,0,1,31.52,28.38Zm-3.16-4.54a4.88,4.88,0,0,0,3.15,3.76,5.48,5.48,0,0,0,2.88-2.28,3.17,3.17,0,0,0,.44-1.38V21.21l-3.21-1.56-3.27,1.56Z"/><path class="cls-6" d="M31.52,28.53l-.17,0a6.18,6.18,0,0,1-1.8-.95,5.48,5.48,0,0,1-2.18-3.62.42.42,0,0,1,0-.07V21a.52.52,0,0,1,.31-.47l3.69-1.76a.62.62,0,0,1,.53,0l3.63,1.76a.52.52,0,0,1,.3.46v3a3.91,3.91,0,0,1-.53,1.74,6.45,6.45,0,0,1-3.56,2.81A.62.62,0,0,1,31.52,28.53Zm.1-9.53a.3.3,0,0,0-.13,0l-3.69,1.76a.22.22,0,0,0-.14.19v2.88a5.19,5.19,0,0,0,2.06,3.45,5.84,5.84,0,0,0,1.7.9.31.31,0,0,0,.2,0A6.15,6.15,0,0,0,35,25.54a3.58,3.58,0,0,0,.49-1.6V21a.22.22,0,0,0-.13-.19L31.76,19A.32.32,0,0,0,31.63,19Zm-.11,8.76-.05,0a5,5,0,0,1-3.25-3.88V21.12l3.42-1.63L35,21.11v2.83a3.26,3.26,0,0,1-.46,1.45,5.63,5.63,0,0,1-3,2.35Zm-3-3.93a4.69,4.69,0,0,0,3,3.61,5.31,5.31,0,0,0,2.75-2.2,3.05,3.05,0,0,0,.42-1.3V21.3l-3.06-1.48-3.12,1.49Z"/></g></g></svg>