<svg xmlns="http://www.w3.org/2000/svg" viewBox="0 0 29.77 30"><defs><style>.cls-1{fill:#383837;}.cls-2{fill:#cb6d2f;}.cls-3{fill:#373736;}</style></defs><title>ico_mi_agenda</title><g id="Capa_2" data-name="Capa 2"><g id="Capa_1-2" data-name="Capa 1"><path class="cls-1" d="M29.77,9.53V23.71A6.29,6.29,0,0,1,23.48,30H6.29A6.29,6.29,0,0,1,0,23.71V9.53A6.29,6.29,0,0,1,6.29,3.24H23.48A6.29,6.29,0,0,1,29.77,9.53Zm-28,14.18a4.53,4.53,0,0,0,4.53,4.53H23.48A4.53,4.53,0,0,0,28,23.71V9.53A4.53,4.53,0,0,0,23.48,5H6.29A4.53,4.53,0,0,0,1.76,9.53Z"/><path class="cls-2" d="M12.83,15.52H8A.76.76,0,1,1,8,14h4.79a.76.76,0,0,1,0,1.52Z"/><path class="cls-3" d="M12.83,18.9H8a.76.76,0,0,1,0-1.52h4.79a.76.76,0,0,1,0,1.52Z"/><path class="cls-3" d="M12.83,22.28H8a.76.76,0,0,1,0-1.52h4.79a.76.76,0,0,1,0,1.52Z"/><path class="cls-2" d="M22.95,15.52H18.15a.76.76,0,1,1,0-1.52h4.79a.76.76,0,1,1,0,1.52Z"/><path class="cls-3" d="M22.95,18.9H18.15a.76.76,0,0,1,0-1.52h4.79a.76.76,0,0,1,0,1.52Z"/><path class="cls-3" d="M22.95,22.28H18.15a.76.76,0,0,1,0-1.52h4.79a.76.76,0,0,1,0,1.52Z"/><path class="cls-1" d="M8.27,8.42a1,1,0,0,1-1-1V1a1,1,0,1,1,2,0V7.44A1,1,0,0,1,8.27,8.42Z"/><path class="cls-1" d="M21.86,8.42a1,1,0,0,1-1-1V1a1,1,0,1,1,2,0V7.44A1,1,0,0,1,21.86,8.42Z"/></g></g></svg>