<svg xmlns="http://www.w3.org/2000/svg" viewBox="0 0 29.16 39.74"><defs><style>.cls-1{fill:#424343;}.cls-2{fill:#383837;}.cls-3{fill:#cd6d2f;}.cls-4{fill:#48a7cf;opacity:0.6;}.cls-5{fill:#fff;}</style></defs><title>ico_clientes</title><g id="Capa_2" data-name="Capa 2"><g id="Capa_1-2" data-name="Capa 1"><rect class="cls-1" x="10.83" y="23.37" width="2.19" height="1.6" transform="translate(-12.63 35.27) rotate(-88.08)"/><rect class="cls-2" x="16.33" y="23.08" width="1.6" height="2.26"/><path class="cls-3" d="M24.48,12.85S26.12.89,14.73,0C6.46-.59,2.93,8.28,4.39,12.57c1.46,0,6.37-.82,6.37-.82L16,8.92l1.09-1.53,1.09-.22.55,1.2,1,2.62,1.64.87,1.53.84Z"/><path class="cls-2" d="M14.27,23.94a10.16,10.16,0,0,1-3.15-.51c-4.59-1.5-6.45-6.63-6.24-10.77l1.6.08c-.18,3.55,1.35,7.93,5.14,9.17a7.92,7.92,0,0,0,7.92-1.61A7.53,7.53,0,0,0,21.79,13l1.56-.36a9.12,9.12,0,0,1-2.74,8.89A9.33,9.33,0,0,1,14.27,23.94Z"/><path class="cls-2" d="M22.59,18.38v-1.6c1.5,0,2.31-.56,2.41-1.67.07-.83-.08-1.12-1.15-1.3a8.82,8.82,0,0,1-2.3-.74,6.72,6.72,0,0,1-2.44-1.87,5.28,5.28,0,0,1-.75-1.72C18.2,9,18,8.2,17.71,8.09s-.75.27-1.44,1.17a6.73,6.73,0,0,1-.78.91,11,11,0,0,1-4,2.22,23.75,23.75,0,0,1-5.68,1,3.65,3.65,0,0,0-1.6.34,1.14,1.14,0,0,0-.63,1.4,2.49,2.49,0,0,0,2.27,1.64l.07,1.6a4.12,4.12,0,0,1-3.87-2.76,2.72,2.72,0,0,1,1.31-3.23,4.91,4.91,0,0,1,2.32-.58A22.37,22.37,0,0,0,11,10.86,9.41,9.41,0,0,0,14.43,9,5.79,5.79,0,0,0,15,8.29c.68-.89,1.81-2.38,3.39-1.65A3.51,3.51,0,0,1,19.89,9a4.51,4.51,0,0,0,.48,1.19,5.14,5.14,0,0,0,1.87,1.42,7.2,7.2,0,0,0,1.88.6,2.58,2.58,0,0,1,2.48,3C26.42,17.21,24.93,18.38,22.59,18.38Z"/><path class="cls-4" d="M8.66,25.93,9.9,28.11l1,1.12.81.43,1-.5,1.37-1.24.52-.55L16,28.79l.43.37.68.25.62-.06,1.3-.75,1.12-1.68-.31-1.24-2.73-.12-1.86-.31s-1-.06-1.37-.06a7.49,7.49,0,0,0-1.18,0c-.37.06-1.12.12-1.12.12s-.56.06-.75.06S8.66,25.93,8.66,25.93Z"/><path class="cls-2" d="M17.44,30.69l-2.81-2.26c-.41.38-1.06,1-1.94,1.79l-.23.21h-.31c-2.55,0-3.73-3.44-3.86-3.83l1.52-.49c.21.65,1,2.42,2.06,2.69,1.41-1.29,2.15-2,2.16-2l.51-.48,3,2.4a5.07,5.07,0,0,0,2-2.62l1.58.24c-.34,2.19-2.94,3.87-3.24,4.05Z"/><path class="cls-5" d="M6.57,7.9h0a.49.49,0,0,1-.45-.53c0-.1.22-2.4,3.18-4.59a.5.5,0,1,1,.59.8C7.27,5.47,7.06,7.43,7.06,7.45A.5.5,0,0,1,6.57,7.9Z"/><circle class="cls-5" cx="27.09" cy="20.96" r="0.54"/><path class="cls-2" d="M28.36,39.74a.8.8,0,0,1-.8-.8,13,13,0,0,0-26,0,.8.8,0,1,1-1.6,0,14.58,14.58,0,1,1,29.16,0A.8.8,0,0,1,28.36,39.74Z"/></g></g></svg>