<svg xmlns="http://www.w3.org/2000/svg" viewBox="0 0 37.18 37.88"><defs><style>.cls-1{fill:#85bdd4;}.cls-2{fill:#cd6d2f;}.cls-3{fill:#383837;}.cls-4{fill:#fff;}.cls-5{fill:#373736;}</style></defs><title>ico_mi presupuesto</title><g id="Capa_2" data-name="Capa 2"><g id="Capa_1-2" data-name="Capa 1"><path class="cls-1" d="M1.45,30a1.6,1.6,0,0,1,0-2.3l2.27-2.15a1.74,1.74,0,0,1,2.66.22c1.46,1.51,5.37,5.43,5.37,5.43s1.38,1.14.62,2-3.15,3.15-3.15,3.15-.62,1.2-2.22-.62C5.91,34.46,3.06,31.59,1.45,30Z"/><path class="cls-2" d="M18.35.81a8,8,0,1,1-6.29,3.14A8,8,0,0,1,18.35.81Z"/><path class="cls-3" d="M18.5,17.65a8.82,8.82,0,1,0-8-4.89A8.82,8.82,0,0,0,18.5,17.65ZM12.69,4.43A7.22,7.22,0,1,1,11.2,8.89,7.22,7.22,0,0,1,12.69,4.43Z"/><path class="cls-4" d="M21.28,10.14c0-1.7-1.55-2-2.75-2-.82,0-1.19-.27-1.2-.69s.41-.64,1.16-.64a2.15,2.15,0,0,1,1.58.56l.87-1a3.18,3.18,0,0,0-1.86-.79V4.36h-1.4V5.56c-1,.2-1.92.77-1.91,1.94,0,1.45,1.45,1.88,2.66,2,.91,0,1.27.22,1.27.66s-.55.78-1.14.77A3.5,3.5,0,0,1,16.36,10l-.77,1.13a3.5,3.5,0,0,0,2.3,1.08v1.06h1.4V12.19A2.12,2.12,0,0,0,21.28,10.14Z"/><path class="cls-5" d="M19.15,26.67a1,1,0,0,1,0-2h6.08a1.14,1.14,0,0,0,.78-.24,1.55,1.55,0,0,0,.33-1.09c0-.6-.22-.79-.29-.85a1.89,1.89,0,0,0-1.25-.26h-.17S20,22.14,16.87,22l-.23,0c-6.93-2-10.15,3.18-10.19,3.23a1,1,0,0,1-1.68-1,10.77,10.77,0,0,1,12.3-4.14c2.84.12,6.94.24,7.54.26a3.72,3.72,0,0,1,2.72.73,2.94,2.94,0,0,1,1,2.34,3.29,3.29,0,0,1-1,2.54,3,3,0,0,1-2.18.75h-6Z"/><path class="cls-5" d="M12.86,32.32a1,1,0,0,1-.76-1.6,4.65,4.65,0,0,1,3.34-1.84c.1,0,7.46.09,10.11,0a4.21,4.21,0,0,0,3.25-1.73c4.83-6.13,6-7.53,6.36-7.89A1.1,1.1,0,0,0,34.72,18c-.72-.47-1.64.26-1.68.29l-5,4.92a1,1,0,0,1-1.37-1.4l5.1-5a3.44,3.44,0,0,1,4.06-.47,3,3,0,0,1,1.38,2.49,2.34,2.34,0,0,1-.72,1.88c-.32.33-3.9,4.83-6.06,7.58a6.15,6.15,0,0,1-4.78,2.55c-2.7.09-9.87,0-10.17,0A2.84,2.84,0,0,0,13.62,32,1,1,0,0,1,12.86,32.32Zm22.4-13.16,0,0Z"/><path class="cls-5" d="M8.57,37.88A3.19,3.19,0,0,1,6.3,36.54c-1.1-1.26-3.94-4.12-5.54-5.72a2.58,2.58,0,0,1,.05-3.7L3.07,25a2.74,2.74,0,0,1,1.84-.78,2.88,2.88,0,0,1,2.2,1c1.46,1.51,5.36,5.42,5.36,5.42a3.23,3.23,0,0,1,1.13,2,1.87,1.87,0,0,1-.45,1.4c-.71.83-2.69,2.73-3.14,3.15a1.77,1.77,0,0,1-1.21.72Zm0-2h0ZM4.94,26.15h0a.83.83,0,0,0-.47.2L2.15,28.55a.62.62,0,0,0,0,.89h0C3.75,31.05,6.63,34,7.77,35.25a2.64,2.64,0,0,0,.73.64l.08-.08s2.37-2.24,3.08-3.07a1.94,1.94,0,0,0-.5-.64c-.07-.06-4-4-5.45-5.5A1.23,1.23,0,0,0,4.94,26.15Z"/></g></g></svg>