<svg xmlns="http://www.w3.org/2000/svg" viewBox="0 0 72.8 70"><defs><style>.cls-1{fill:#424343;}.cls-2{fill:#cd6d2f;}.cls-3{fill:#48a7cf;opacity:0.6;}.cls-4{fill:#fff;}</style></defs><title>Ico_user</title><g id="Capa_2" data-name="Capa 2"><g id="Capa_1-2" data-name="Capa 1"><rect class="cls-1" x="40.37" y="43.13" width="3.33" height="1.53" transform="translate(-3.23 84.45) rotate(-88.1)"/><rect class="cls-1" x="49.22" y="42.23" width="1.53" height="3.44"/><path class="cls-2" d="M61.2,26.62S63.7,8.37,46.31,7.07c-12.62-.95-18,12.58-15.78,19.14,2.22,0,9.72-1.25,9.72-1.25l8-4.33,1.67-2.33L51.59,18l.83,1.83,1.5,4,2.5,1.33,2.33,1.28Z"/><path class="cls-1" d="M45.61,43.09A15,15,0,0,1,41,42.33c-6.77-2.21-9.52-9.83-9.21-16l1.52.08C33,32,35.42,38.92,41.42,40.88A12.53,12.53,0,0,0,54,38.33a12,12,0,0,0,3.58-11.65L59,26.33a13.46,13.46,0,0,1-4,13.12A13.78,13.78,0,0,1,45.61,43.09Z"/><path class="cls-1" d="M58.31,34.61V33.08c1.77,0,3.92-.52,4.13-3,.14-1.6-.36-2.18-2.13-2.47a13,13,0,0,1-3.39-1.08,9.78,9.78,0,0,1-3.56-2.73,7.73,7.73,0,0,1-1.07-2.47c-.31-1-.67-2.16-1.23-2.42-.88-.41-1.69.54-2.75,1.92a9.89,9.89,0,0,1-1.13,1.32,16.34,16.34,0,0,1-5.9,3.29,35.92,35.92,0,0,1-8.56,1.43,5.94,5.94,0,0,0-2.65.59,2.2,2.2,0,0,0-1.15,2.66A4.22,4.22,0,0,0,32.84,33l.07,1.53a5.82,5.82,0,0,1-5.45-3.89,3.68,3.68,0,0,1,1.81-4.4,7.16,7.16,0,0,1,3.34-.81A34.47,34.47,0,0,0,40.81,24a14.83,14.83,0,0,0,5.36-3,9,9,0,0,0,.93-1.11c1-1.33,2.55-3.34,4.61-2.38,1.18.55,1.62,2,2,3.35a6.86,6.86,0,0,0,.81,2,8.29,8.29,0,0,0,3,2.3,11.54,11.54,0,0,0,3,1c1.73.28,3.67,1,3.4,4.1C63.72,33,61.66,34.61,58.31,34.61Z"/><path class="cls-1" d="M45.53,70C28,70,19.14,63.79,18.76,63.51a.76.76,0,0,1,.89-1.24c.09.07,9.39,6.5,27.21,6.19s24.65-5.3,24.72-5.34a.76.76,0,1,1,.92,1.22c-.29.22-7.24,5.32-25.61,5.65Z"/><path class="cls-3" d="M37.05,46.59l1.9,3.32,1.52,1.71,1.23.66,1.52-.76,2.08-1.9.8-.84,2.24,2.17.66.57,1,.38L51,51.8l2-1.14,1.71-2.56-.47-1.9L50,46l-2.84-.47s-1.52-.09-2.08-.09a11.42,11.42,0,0,0-1.8,0c-.57.09-1.71.19-1.71.19s-.85.09-1.14.09S37.05,46.59,37.05,46.59Z"/><path class="cls-1" d="M50.48,53.28l-4.35-3.49c-.58.55-1.67,1.56-3.25,3l-.22.2h-.3c-3.63,0-5.37-5.3-5.45-5.53L38.37,47c.39,1.19,1.78,4.19,3.72,4.45,2.28-2.07,3.46-3.21,3.47-3.21l.48-.46,4.53,3.64c1-.7,3.28-2.53,3.58-4.5l1.51.23c-.49,3.2-4.55,5.76-4.73,5.86Z"/><path class="cls-1" d="M25.71,66.27h0a.76.76,0,0,1-.74-.78c.19-7.2,3.6-16.67,12.58-19.67a24.27,24.27,0,0,1,19.55,1.41,19.82,19.82,0,0,1,9.72,13.3.76.76,0,0,1-1.49.34,18.33,18.33,0,0,0-9-12.3A22.75,22.75,0,0,0,38,47.26C29.77,50,26.65,58.82,26.47,65.52A.76.76,0,0,1,25.71,66.27Z"/><path class="cls-4" d="M33.86,19.08H33.8a.76.76,0,0,1-.69-.81c0-.15.33-3.67,4.86-7a.76.76,0,1,1,.9,1.22c-3.92,2.89-4.24,5.87-4.24,5.9A.76.76,0,0,1,33.86,19.08Z"/><circle class="cls-4" cx="40.75" cy="10.55" r="0.82"/><path class="cls-1" d="M12.64,25.78A12.78,12.78,0,0,1,0,12.89,12.78,12.78,0,0,1,12.64,0,12.78,12.78,0,0,1,25.27,12.89a13,13,0,0,1-2,7l1.46,2.79a2,2,0,0,1-.12,2,2,2,0,0,1-1.86.86l-5.64-.62A12.33,12.33,0,0,1,12.64,25.78Zm0-24.26A11.26,11.26,0,0,0,1.52,12.89,11.26,11.26,0,0,0,12.64,24.26a10.85,10.85,0,0,0,4.07-.8l.18-.07,6,.66a.48.48,0,0,0,.47-.69L21.5,19.76l.26-.38a11.47,11.47,0,0,0,2-6.5A11.26,11.26,0,0,0,12.64,1.52Z"/><circle class="cls-3" cx="6.82" cy="13.39" r="1.39"/><circle class="cls-3" cx="12.76" cy="13.52" r="1.39"/><circle class="cls-3" cx="18.45" cy="13.39" r="1.39"/></g></g></svg>